<svg width="121" height="107" viewBox="0 0 121 107" fill="none" xmlns="http://www.w3.org/2000/svg">
<g clip-path="url(#clip0_0_40)">
<g style="mix-blend-mode:multiply">
<path d="M0.304043 84.944C0.239676 73.0476 16.8876 63.3133 37.4883 63.2018C58.089 63.0904 74.8413 72.644 74.9057 84.5404C74.97 96.4368 58.3221 106.171 37.7214 106.283C17.1207 106.394 0.368409 96.8405 0.304043 84.944Z" fill="#E5E6ED"/>
</g>
<path d="M89.0275 82.4267C88.8182 82.4304 88.6115 82.3798 88.4275 82.28L83.2675 79.6133C83.0699 79.5655 82.8858 79.4731 82.7293 79.3431C82.5729 79.2132 82.4482 79.0492 82.3649 78.8637C82.2816 78.6782 82.2418 78.4761 82.2486 78.2728C82.2554 78.0696 82.3086 77.8706 82.4042 77.6911C82.4997 77.5115 82.635 77.3562 82.7998 77.2371C82.9646 77.1179 83.1545 77.038 83.3549 77.0035C83.5553 76.9689 83.7609 76.9807 83.9561 77.0379C84.1513 77.0951 84.3307 77.1961 84.4808 77.3333L87.6942 78.96V22.96L50.8542 4.18667L34.5342 13.52C34.3812 13.6076 34.2124 13.664 34.0374 13.686C33.8625 13.7079 33.685 13.695 33.5151 13.6478C33.3452 13.6007 33.1864 13.5204 33.0478 13.4115C32.9091 13.3026 32.7935 13.1672 32.7075 13.0133C32.5348 12.7056 32.4911 12.3419 32.5861 12.002C32.6811 11.662 32.9069 11.3737 33.2142 11.2L50.1875 1.50667C50.3902 1.38964 50.6201 1.32803 50.8542 1.32803C51.0882 1.32803 51.3181 1.38964 51.5208 1.50667L89.6275 20.8933C89.8474 21.0041 90.0323 21.1737 90.1617 21.3831C90.2912 21.5926 90.3601 21.8338 90.3608 22.08V81.0933C90.3622 81.3234 90.3039 81.55 90.1918 81.7509C90.0796 81.9519 89.9174 82.1203 89.7208 82.24C89.5094 82.3603 89.2707 82.4246 89.0275 82.4267Z" fill="#7F85A7"/>
<path d="M51.1875 7.92001L84.8008 25.7733L84.6008 81.7734L84.1075 82.24C81.1473 85.3591 77.5314 87.7819 73.5208 89.3334L69.9208 90.5734V38.5733L37.5208 15.5467L40.3075 14.4133C44.3132 12.9332 48.0141 10.7325 51.2275 7.92001H51.1875Z" fill="#FF6633"/>
<path d="M69.8275 98.9333C69.5496 98.9315 69.2793 98.843 69.0542 98.68L33.1208 73.0933C32.9467 72.9693 32.8049 72.8053 32.7074 72.615C32.61 72.4247 32.5597 72.2138 32.5608 72V12.9867C32.5616 12.7404 32.6305 12.4992 32.7599 12.2898C32.8894 12.0803 33.0743 11.9108 33.2942 11.8C33.505 11.6968 33.7393 11.6511 33.9734 11.6675C34.2075 11.6839 34.4331 11.7618 34.6275 11.8933L70.6275 37.4933C70.7998 37.616 70.9405 37.778 71.0379 37.9657C71.1352 38.1535 71.1865 38.3618 71.1875 38.5733V97.6C71.1856 97.8426 71.1175 98.08 70.9907 98.2868C70.8638 98.4935 70.6829 98.6618 70.4675 98.7733C70.2709 98.8794 70.0509 98.9344 69.8275 98.9333ZM35.2275 71.32L68.4942 95.0133V39.2667L35.2275 15.5733V71.32Z" fill="#7F85A7"/>
</g>
<defs>
<clipPath id="clip0_0_40">
<rect width="120" height="106.667" fill="white" transform="translate(0.1875)"/>
</clipPath>
</defs>
</svg>
