<svg width="120" height="107" viewBox="0 0 120 107" fill="none" xmlns="http://www.w3.org/2000/svg">
<g clip-path="url(#clip0_0_41)">
<g style="mix-blend-mode:multiply">
<path d="M0.116543 84.944C0.0521761 73.0476 16.7001 63.3133 37.3008 63.2018C57.9015 63.0904 74.6538 72.644 74.7182 84.5404C74.7825 96.4368 58.1346 106.171 37.5339 106.283C16.9332 106.394 0.180909 96.8405 0.116543 84.944Z" fill="#E5E6ED"/>
</g>
<path d="M113.253 27.4973L74.6534 4.92392C66.56 0.203921 53.2934 0.12392 45.1467 4.76392L6.30668 26.9106C2.21335 29.2839 0.200017 32.3106 0.173351 35.3906C0.146684 38.4706 2.21335 41.5773 6.21335 43.9506L44.88 66.5106C52.9734 71.2439 66.2134 71.3106 74.3867 66.6706L113.16 44.5239C117.227 42.2039 119.267 39.1906 119.293 36.0439C119.32 32.8973 117.293 29.8573 113.253 27.4973Z" fill="#00A2B9"/>
<path d="M119.24 35.4172C119.24 35.6306 119.24 35.8306 119.24 36.0439C119.14 38.2468 118.183 40.3233 116.573 41.8306V53.1106C116.573 55.7772 114.693 58.3239 111.24 60.2972L73.4667 82.1906C66 86.4972 53.3733 86.4972 45.9067 82.1906L7.98667 60.2972C4.57333 58.3239 2.65333 55.7772 2.65333 53.1106V41.1906C1.11391 39.6465 0.226149 37.5703 0.173333 35.3906C0.173333 35.2972 0.173333 35.2039 0.173333 35.1106C0.0676386 35.3031 0.00829052 35.5177 0 35.7372V53.0706C0 56.7239 2.36 60.0972 6.66667 62.5639L44.5733 84.4972C49.224 86.968 54.4281 88.2117 59.6933 88.1106C64.9542 88.21 70.1535 86.9664 74.8 84.4972L112.72 62.6172C116.987 60.1506 119.387 56.7772 119.387 53.1239V35.9506C119.376 35.7645 119.326 35.5828 119.24 35.4172V35.4172Z" fill="#7F85A7"/>
<path d="M38.2133 50.9906L33.0267 47.9506L40.7333 43.5506L56.3867 42.6172L49.4267 38.6172L59.9733 32.6172L47.1467 25.0706L75.6133 23.6572L81.6 20.2439L86.8133 23.2972L78.9867 27.7506L63.3333 28.5239L70.4 32.6439L59.8667 38.6172L72.5733 46.0572L44.1067 47.6439L38.2133 50.9906Z" fill="white"/>
</g>
<defs>
<clipPath id="clip0_0_41">
<rect width="120" height="106.667" fill="white"/>
</clipPath>
</defs>
</svg>
