<svg width="120" height="107" viewBox="0 0 120 107" fill="none" xmlns="http://www.w3.org/2000/svg">
<g clip-path="url(#clip0_21_33)">
<g style="mix-blend-mode:multiply">
<path d="M0.116543 84.944C0.0521761 73.0476 16.7001 63.3133 37.3008 63.2018C57.9015 63.0904 74.6538 72.644 74.7182 84.5404C74.7825 96.4368 58.1346 106.171 37.5339 106.283C16.9332 106.394 0.180909 96.8405 0.116543 84.944Z" fill="#E5E6ED"/>
</g>
<path d="M59.9999 21.8533C55.4133 21.8533 51.0799 20.8133 47.8133 18.9066C44.2533 16.84 42.2933 14.0133 42.2933 10.92C42.2933 7.82664 44.2533 4.98664 47.8133 2.93331C54.5333 -0.960028 65.4799 -0.960028 72.1999 2.93331C75.7599 4.99997 77.7199 7.83997 77.7199 10.92C77.7199 14 75.7599 16.8533 72.1999 18.9066C68.9199 20.8 64.5999 21.8533 60.0133 21.8533H59.9999ZM59.9999 2.62664C56.0666 2.62664 52.1333 3.49331 49.1466 5.22664C46.4399 6.78664 44.9599 8.81331 44.9599 10.9066C44.9599 13 46.4533 15.0266 49.1466 16.5866C52.0133 18.2533 55.8799 19.1733 59.9999 19.1733C64.1199 19.1733 67.9866 18.2533 70.8533 16.5866C73.5599 15.0266 75.0399 13 75.0399 10.9066C75.0399 8.81331 73.5466 6.78664 70.8533 5.22664C67.8666 3.49331 63.9333 2.62664 59.9999 2.62664Z" fill="#7F85A7"/>
<path d="M60 106.453C49.3466 106.453 39.3066 104.04 31.76 99.6667C23.84 95.08 19.48 88.8533 19.48 82.1467C19.48 79.68 20.1333 77.1067 21.3733 74.6933C21.7066 74.04 22.52 73.7867 23.1733 74.12C23.8266 74.4533 24.08 75.2667 23.7466 75.92C22.6933 77.96 22.1466 80.1067 22.1466 82.1467C22.1466 87.8667 26.04 93.2667 33.0933 97.36C40.24 101.507 49.8 103.787 60 103.787C70.2 103.787 79.7466 101.507 86.8933 97.36C93.9466 93.2667 97.84 87.8667 97.84 82.16C97.84 79.7467 97.1466 77.3867 95.8 75.1333C95.4133 74.5067 95.6267 73.68 96.2533 73.3067C96.88 72.92 97.7066 73.1333 98.08 73.76C99.6933 76.44 100.507 79.2667 100.507 82.16C100.507 88.8667 96.1466 95.08 88.24 99.6667C80.68 104.04 70.6533 106.453 60 106.453Z" fill="#7F85A7"/>
<path d="M92.6667 75.3333L92.56 75.1333C92.56 75.1333 92.5333 75.08 92.52 75.0533L83.64 58H36.3467L27.4933 75.0267C27.4933 75.0267 27.44 75.1333 27.4133 75.1867L27.3333 75.3467C26.44 77.1467 25.9733 79.04 25.9733 80.9733C25.9733 86.3733 29.56 91.4133 36.0533 95.1867C42.6533 99.0133 51.3333 100.933 60 100.933C68.6667 100.933 77.3467 99.0133 83.9467 95.1867C90.4533 91.4133 94.0267 86.3733 94.0267 80.9733C94.0267 79.04 93.56 77.1467 92.6667 75.3333Z" fill="#FF6633"/>
<path d="M76.9734 70.8667C72.2934 73.5867 66.1467 74.9334 60.0001 74.9334C53.8534 74.9334 47.7067 73.5734 43.0267 70.8667C38.4134 68.2 35.8801 64.6134 35.8801 60.7867C35.8801 56.96 38.4134 53.3867 43.0267 50.72C52.3867 45.2934 67.6267 45.2934 76.9867 50.72C81.6001 53.3867 84.1334 56.9734 84.1334 60.8C84.1334 64.6267 81.6001 68.2 76.9867 70.8667" fill="#FFB299"/>
<path d="M22.5733 76.64C22.36 76.64 22.1467 76.5867 21.9467 76.48C21.2933 76.1333 21.0533 75.32 21.4133 74.6667L42.08 36.4267C43.5333 33.7333 44.3067 30.68 44.3067 27.6133V15.8C44.3067 15.0667 44.9067 14.4667 45.64 14.4667C46.3733 14.4667 46.9733 15.0667 46.9733 15.8V27.6133C46.9733 31.12 46.0933 34.6133 44.4267 37.6933L23.76 75.9333C23.52 76.3733 23.0533 76.6267 22.5867 76.6267L22.5733 76.64Z" fill="#7F85A7"/>
<path d="M96.96 75.8C96.4934 75.8 96.0267 75.5467 95.7867 75.1067L75.4267 37.72C73.76 34.6267 72.8667 31.1333 72.8667 27.6267V16.2133C72.8667 15.48 73.4667 14.88 74.2 14.88C74.9334 14.88 75.5334 15.48 75.5334 16.2133V27.6267C75.5334 30.6933 76.3067 33.7467 77.7734 36.4533L98.12 73.8267C98.4667 74.48 98.2267 75.28 97.5867 75.64C97.3867 75.7467 97.16 75.8 96.9467 75.8H96.96Z" fill="#7F85A7"/>
</g>
<defs>
<clipPath id="clip0_21_33">
<rect width="120" height="106.667" fill="white"/>
</clipPath>
</defs>
</svg>
